# xmcd
# Track frame offsets:
# 150
# 16201
# 33044
# 48175
# 59855
# 68881
# 84162
# 96247
# 115733
# 127470
# 139767
# 167423
# 184294
#
# Disc length: 2655 seconds
# Revision: 1
# Processed by: cddbd v1.5.2PL0 Copyright (c) Steve Scherf et al.
# Submitted via: VisiTrax 2.11.3.279 - For more info visit www.synapsa.com
#
DISCID=b00a5d0d
DTITLE=Various Artist - Country's Favourite Drinking Songs [CD 2)
DYEAR=2005
DGENRE=Country
TTITLE0=Willie Nelson - Whiskey River
TTITLE1=David Lee Murphy - Dust On The Bottle
TTITLE2=Double Deccker Dave - Come And Have A Beer Mate
TTITLE3=Brooks and Dunn - Beer Thirty
TTITLE4=Roger Miller - Chug-A-Lug
TTITLE5=Joe Nichols - She Only Smokes When She Drinks
TTITLE6=Travis Tritt and Marty Stuart - The Whiskey Ain't Workin'
TTITLE7=Brad Pailsey and Alison Krauss - Whiskey Lullaby
TTITLE8=George Jones - White Lightnin'
TTITLE9=Ernest Tubb - Pass The Booze
TTITLE10=Ted Egan - Drinkers Of The Territory
TTITLE11=Bill Chambers - I Drink
TTITLE12=Greg Champion - May Your Fridge Be Full Of Coldies
EXTD=YEAR: 2005
EXTT0=
EXTT1=
EXTT2=
EXTT3=
EXTT4=
EXTT5=
EXTT6=
EXTT7=
EXTT8=
EXTT9=
EXTT10=
EXTT11=
EXTT12=
PLAYORDER=
